<?xml version="1.0" encoding="utf-8"?>
<!-- Generator: Adobe Illustrator 26.2.1, SVG Export Plug-In . SVG Version: 6.00 Build 0)  -->
<svg version="1.1" id="Solid" xmlns="http://www.w3.org/2000/svg" xmlns:xlink="http://www.w3.org/1999/xlink" x="0px" y="0px"
	 viewBox="0 0 64 64" enable-background="new 0 0 64 64" xml:space="preserve">
<path d="M61.5,47.835l-0.368-0.212c-1.068-0.617-1.924-1.581-2.408-2.715l-0.199-0.467c-0.653-1.53-1.806-2.83-3.246-3.662
	L52,38.886V28.574c4.61-1.31,8-5.549,8-10.574s-3.39-9.263-8-10.574V7c0-2.76-2.24-5-5-5H17c-2.76,0-5,2.24-5,5v13.23
	C11.69,20.08,11.35,20,11,20c-1.42,0-2.58,1.26-2.91,3H7c-0.55,0-1,0.45-1,1v24c0,0.552,0.447,1,1,1h5v8c0,2.757,2.243,5,5,5h30
	c1.359,0,2.652-0.57,3.596-1.562c0.577-0.083,1.148-0.231,1.705-0.449c1.608-0.63,3.393-0.496,4.891,0.37l2.609,1.507
	c0.152,0.087,0.324,0.134,0.5,0.134H61c0.553,0,1-0.448,1-1V48.702C62,48.344,61.81,48.014,61.5,47.835z M11,22
	c0.28,0,0.65,0.37,0.85,1h-1.69C10.35,22.37,10.72,22,11,22z M12,47H8v-4h4V47z M12,41H8v-4h4V41z M12,35H8v-4h4V35z M11,28
	c-1.42,0-2.58-1.26-2.91-3h2.07c0.19,0.63,0.56,1,0.84,1c0.55,0,1,0.45,1,1S11.55,28,11,28z M52.293,14.293
	c0.391-0.391,1.023-0.391,1.414,0s0.391,1.023,0,1.414l-6,6C47.512,21.902,47.256,22,47,22s-0.512-0.098-0.707-0.293l-3-3
	c-0.391-0.391-0.391-1.023,0-1.414s1.023-0.391,1.414,0L47,19.586L52.293,14.293z M14,7c0-1.65,1.35-3,3-3h30c1.65,0,3,1.35,3,3
	v0.051C49.67,7.021,49.338,7,49,7c-6.065,0-11,4.935-11,11s4.935,11,11,11c0.338,0,0.67-0.021,1-0.051v8.782l-0.571-0.33
	c-1.434-0.826-3.271-0.333-4.099,1.099c-0.384,0.665-0.483,1.417-0.336,2.115c-0.678,0.222-1.28,0.684-1.664,1.349
	s-0.483,1.417-0.336,2.115c-0.678,0.222-1.28,0.685-1.664,1.35c-0.175,0.303-0.291,0.625-0.352,0.951L38,44.661V24
	c0-0.55-0.45-1-1-1h-2.09c-0.33-1.74-1.49-3-2.91-3c-0.78,0-1.47,0.37-2,1c-0.53-0.63-1.22-1-2-1c-1.42,0-2.58,1.26-2.91,3h-7.18
	c-0.33-1.74-1.49-3-2.91-3c-0.35,0-0.69,0.08-1,0.23V7z M32.075,47H32v-4h4v0.568c-0.567-0.202-1.181-0.232-1.776-0.073
	c-0.774,0.207-1.421,0.704-1.821,1.397C32.031,45.536,31.924,46.278,32.075,47z M28,26c0.55,0,1,0.45,1,1s-0.45,1-1,1
	c-1.42,0-2.58-1.26-2.91-3h2.07C27.35,25.63,27.72,26,28,26z M27.16,23c0.19-0.63,0.56-1,0.84-1s0.65,0.37,0.85,1H27.16z M26,43h4v4
	h-4V43z M26,41v-4h4v4H26z M26,35v-4h4v4H26z M29.09,25h2.07c0.19,0.63,0.56,1,0.84,1c0.55,0,1,0.45,1,1s-0.45,1-1,1
	C30.58,28,29.42,26.74,29.09,25z M31.16,23c0.19-0.63,0.56-1,0.84-1s0.65,0.37,0.85,1H31.16z M32,41v-4h4v4H32z M32,35v-4h4v4H32z
	 M20,41v-4h4v4H20z M24,43v4h-4v-4H24z M20,35v-4h4v4H20z M14,41v-4h4v4H14z M18,43v4h-4v-4H18z M14,35v-4h4v4H14z M15.85,23h-1.69
	c0.19-0.63,0.56-1,0.84-1S15.65,22.37,15.85,23z M12.09,25h2.07c0.19,0.63,0.56,1,0.84,1c0.55,0,1,0.45,1,1s-0.45,1-1,1
	C13.58,28,12.42,26.74,12.09,25z M17,60c-1.654,0-3-1.346-3-3v-8h19.516l6.155,3.553c-0.19,0.682-0.196,1.405-0.008,2.107
	c0.276,1.032,0.938,1.895,1.863,2.429l4.155,2.399c0.354,0.205,0.724,0.368,1.098,0.512H17z M60,59.671l-1.809-1.044
	c-1.184-0.684-2.5-1.03-3.824-1.03c-0.942,0-1.889,0.175-2.795,0.529c-1.609,0.629-3.394,0.495-4.891-0.37l-4.155-2.399
	c-0.463-0.267-0.794-0.698-0.932-1.214c-0.046-0.17-0.06-0.342-0.061-0.514l3.225,1.862c0.157,0.091,0.329,0.134,0.499,0.134
	c0.346,0,0.682-0.179,0.867-0.5c0.276-0.479,0.112-1.09-0.366-1.366l-11.259-6.5c-0.231-0.134-0.396-0.35-0.466-0.607
	s-0.033-0.527,0.101-0.759c0.133-0.231,0.349-0.396,0.606-0.465c0.258-0.067,0.527-0.034,0.759,0.1l6.927,3.999
	c0.001,0,0.001,0.001,0.002,0.001c0.477,0.274,1.09,0.112,1.366-0.366c0.276-0.479,0.112-1.09-0.366-1.366
	c-0.478-0.275-0.642-0.888-0.366-1.365c0.275-0.479,0.889-0.643,1.366-0.367c0.477,0.275,1.089,0.112,1.366-0.366
	c0.091-0.158,0.134-0.33,0.134-0.499c0-0.346-0.18-0.682-0.5-0.867c-0.478-0.275-0.642-0.888-0.366-1.365
	c0.274-0.478,0.887-0.643,1.366-0.366c0.476,0.274,1.089,0.112,1.366-0.366c0.091-0.158,0.134-0.33,0.134-0.499
	c0-0.346-0.18-0.682-0.5-0.867c-0.478-0.275-0.642-0.888-0.366-1.365c0.274-0.479,0.888-0.643,1.366-0.367l5.85,3.377
	c1.067,0.616,1.922,1.581,2.407,2.715l0.199,0.467c0.633,1.482,1.735,2.75,3.115,3.583V59.671z"/>
<circle cx="17" cy="7" r="1"/>
<circle cx="21" cy="7" r="1"/>
<path d="M37,54H27c-0.553,0-1,0.448-1,1s0.447,1,1,1h10c0.553,0,1-0.448,1-1S37.553,54,37,54z"/>
</svg>
