<?xml version="1.0" encoding="UTF-8" standalone="no"?><!DOCTYPE svg PUBLIC "-//W3C//DTD SVG 1.1//EN" "http://www.w3.org/Graphics/SVG/1.1/DTD/svg11.dtd"><svg width="100%" height="100%" viewBox="0 0 9413 10417" version="1.1" xmlns="http://www.w3.org/2000/svg" xmlns:xlink="http://www.w3.org/1999/xlink" xml:space="preserve" xmlns:serif="http://www.serif.com/" style="fill-rule:evenodd;clip-rule:evenodd;stroke-linejoin:round;stroke-miterlimit:2;"><g><path d="M8195.28,10040.2l-6977.91,-0c-463.654,-0 -840.867,-377.209 -840.867,-840.875l0,-5308.75l8659.65,-0l-0,5308.75c-0,463.666 -377.208,840.875 -840.874,840.875Zm-6977.91,-8659.65l790.662,-0l0,313.754c0,11.896 0.3,23.721 0.9,35.47c1.192,23.497 3.571,46.684 7.067,69.513c45.467,296.73 280.583,531.842 577.313,577.313c22.824,3.496 46.012,5.87 69.512,7.066c11.75,0.601 23.583,0.901 35.458,0.901c11.917,-0 23.709,-0.3 35.454,-0.901c23.505,-1.196 46.713,-3.57 69.546,-7.066c296.709,-45.471 531.834,-280.583 577.292,-577.313c3.5,-22.829 5.875,-46.016 7.083,-69.513c0.584,-11.749 0.875,-23.574 0.875,-35.47l0,-313.754l2635.58,-0l-0,313.754c-0,11.896 0.291,23.721 0.875,35.47c1.208,23.497 3.583,46.684 7.083,69.513c46.334,302.438 289.666,540.862 594.5,579.726c17.25,2.199 34.708,3.757 52.334,4.653c11.749,0.601 23.541,0.901 35.458,0.901c11.875,-0 23.708,-0.3 35.458,-0.901c17.625,-0.896 35.083,-2.454 52.333,-4.653c304.788,-38.864 548.167,-277.288 594.5,-579.726c3.5,-22.829 5.876,-46.016 7.043,-69.513c0.624,-11.749 0.916,-23.574 0.916,-35.47l0,-313.754l790.667,-0c463.666,-0 840.874,377.212 840.874,840.867l-0,1292.65l-8659.65,-0l0,-1292.65c0,-463.655 377.213,-840.867 840.867,-840.867Zm1167.17,-690.258c-0,-173.004 140.75,-313.758 313.745,-313.758c83.829,-0 162.625,32.624 221.917,91.937c59.209,59.208 91.833,137.983 91.833,221.821l0,1004.01c0,173.008 -140.75,313.758 -313.75,313.758c-172.995,0 -313.745,-140.75 -313.745,-313.758l-0,-1004.01Zm4016.08,-0c-0,-173.004 140.75,-313.758 313.75,-313.758c83.833,-0 162.583,32.624 221.875,91.937c59.245,59.208 91.875,137.983 91.875,221.821l-0,1004.01c-0,27.033 -3.463,53.28 -9.917,78.321c-33.583,130.225 -148.875,227.967 -287.708,235.029c-5.334,0.271 -10.709,0.408 -16.125,0.408c-5.417,0 -10.792,-0.137 -16.125,-0.408c-138.834,-7.062 -254.167,-104.804 -287.75,-235.029c-6.459,-25.041 -9.875,-51.288 -9.875,-78.321l-0,-1004.01Zm2655.46,670.308c-229.917,-229.929 -535.625,-356.554 -860.791,-356.554l-790.667,0l0,-313.754c0,-184.446 -71.833,-357.796 -202.125,-488.05c-130.333,-130.4 -303.709,-202.213 -488.125,-202.213c-380.625,0 -690.25,309.65 -690.25,690.263l-0,313.754l-2635.58,0l0,-313.754c0,-184.446 -71.791,-357.796 -202.125,-488.05c-130.333,-130.4 -303.666,-202.213 -488.125,-202.213c-380.6,0 -690.25,309.65 -690.25,690.263l0,313.754l-790.662,0c-325.179,0 -630.888,126.625 -860.817,356.554c-229.929,229.929 -356.554,535.638 -356.554,860.817l0,6977.9c0,325.166 126.625,630.875 356.554,860.833c229.929,229.917 535.638,356.542 860.817,356.542l6977.91,-0c325.166,-0 630.874,-126.625 860.791,-356.542c229.958,-229.958 356.583,-535.667 356.583,-860.833l0,-6977.9c0,-325.179 -126.625,-630.888 -356.583,-860.817Z" style="fill-rule:nonzero;"/><path d="M4643.57,6086.83c-0,-301.708 -117.5,-585.333 -330.833,-798.666c-213.334,-213.334 -497,-330.834 -798.667,-330.834c-301.709,0 -585.375,117.5 -798.708,330.834c-213.338,213.333 -330.829,496.958 -330.829,798.666c-0,138.625 112.379,251 250.995,251c138.625,0 251,-112.375 251,-251c0,-345.999 281.501,-627.5 627.542,-627.5c346,0 627.5,281.501 627.5,627.5c-0,346.042 -281.5,627.542 -627.5,627.542c-138.625,-0 -251.042,112.375 -251.042,251c0,138.625 112.417,251 251.042,251c346,-0 627.5,281.5 627.5,627.5c-0,346 -281.5,627.5 -627.5,627.5c-346.041,0 -627.542,-281.5 -627.542,-627.5c0,-138.625 -112.375,-251 -251,-251c-138.616,-0 -250.995,112.375 -250.995,251c-0,301.708 117.491,585.333 330.829,798.708c213.333,213.334 496.999,330.792 798.708,330.792c301.667,-0 585.333,-117.458 798.667,-330.792c213.333,-213.375 330.833,-497 330.833,-798.708c-0,-301.704 -117.5,-585.333 -330.833,-798.708c-28.334,-28.334 -57.917,-54.917 -88.625,-79.792c30.708,-24.917 60.291,-51.5 88.625,-79.833c213.333,-213.334 330.833,-497 330.833,-798.709Z" style="fill-rule:nonzero;"/><path d="M7027.37,5190.04c-0.125,-2.125 -0.25,-4.209 -0.459,-6.334c-0.254,-2.458 -0.583,-4.916 -0.875,-7.375c-0.212,-1.583 -0.379,-3.166 -0.624,-4.708c-0.376,-2.666 -0.875,-5.291 -1.334,-7.917c-0.25,-1.375 -0.463,-2.75 -0.75,-4.124c-0.5,-2.667 -1.125,-5.334 -1.713,-7.959c-0.328,-1.334 -0.62,-2.667 -0.954,-4c-0.624,-2.542 -1.332,-5.083 -2.042,-7.625c-0.416,-1.417 -0.791,-2.875 -1.212,-4.292c-0.704,-2.333 -1.495,-4.667 -2.245,-7c-0.542,-1.583 -1.084,-3.208 -1.626,-4.791c-0.749,-2.084 -1.583,-4.167 -2.379,-6.25c-0.704,-1.792 -1.37,-3.584 -2.125,-5.376c-0.746,-1.833 -1.537,-3.625 -2.329,-5.416c-0.88,-2 -1.796,-4 -2.709,-6c-0.749,-1.542 -1.499,-3.042 -2.295,-4.583c-1.084,-2.167 -2.162,-4.375 -3.329,-6.5c-0.713,-1.334 -1.459,-2.625 -2.167,-3.959c-1.292,-2.249 -2.584,-4.541 -3.921,-6.791c-0.746,-1.208 -1.496,-2.375 -2.204,-3.542c-1.458,-2.292 -2.875,-4.542 -4.375,-6.792c-0.792,-1.208 -1.625,-2.333 -2.417,-3.5c-1.541,-2.166 -3.041,-4.333 -4.625,-6.458c-0.958,-1.333 -2,-2.583 -3,-3.875c-1.5,-1.917 -2.958,-3.833 -4.499,-5.75c-1.376,-1.667 -2.834,-3.333 -4.292,-5c-1.25,-1.417 -2.417,-2.875 -3.709,-4.25c-5.583,-6.167 -11.416,-12.041 -17.583,-17.583c-1.417,-1.292 -2.875,-2.5 -4.292,-3.751c-1.666,-1.416 -3.291,-2.874 -4.958,-4.249c-1.917,-1.583 -3.833,-3.042 -5.75,-4.542c-1.292,-1 -2.584,-2 -3.875,-2.958c-2.125,-1.584 -4.292,-3.125 -6.5,-4.625c-1.125,-0.792 -2.292,-1.625 -3.458,-2.417c-2.25,-1.5 -4.542,-2.958 -6.834,-4.375c-1.166,-0.75 -2.333,-1.5 -3.5,-2.208c-2.25,-1.334 -4.541,-2.625 -6.833,-3.917c-1.292,-0.708 -2.583,-1.459 -3.917,-2.167c-2.166,-1.166 -4.333,-2.25 -6.5,-3.375c-1.541,-0.75 -3.041,-1.5 -4.583,-2.249c-2,-0.918 -4,-1.834 -6.042,-2.709c-1.791,-0.792 -3.541,-1.583 -5.374,-2.333c-1.792,-0.75 -3.584,-1.459 -5.417,-2.167c-2.042,-0.792 -4.125,-1.584 -6.209,-2.333c-1.583,-0.542 -3.208,-1.084 -4.791,-1.625c-2.333,-0.751 -4.667,-1.542 -7.042,-2.251c-1.417,-0.416 -2.833,-0.833 -4.25,-1.208c-2.542,-0.708 -5.083,-1.417 -7.625,-2.083c-1.333,-0.333 -2.666,-0.583 -4,-0.917c-2.667,-0.583 -5.292,-1.208 -7.959,-1.75c-1.374,-0.25 -2.749,-0.458 -4.125,-0.708c-2.625,-0.5 -5.25,-0.958 -7.916,-1.333c-1.583,-0.25 -3.166,-0.417 -4.75,-0.625c-2.417,-0.292 -4.875,-0.625 -7.333,-0.875c-2.125,-0.209 -4.25,-0.334 -6.375,-0.459c-1.917,-0.166 -3.876,-0.333 -5.834,-0.458c-8.291,-0.375 -16.583,-0.375 -24.833,-0c-1.958,0.125 -3.917,0.292 -5.875,0.458c-2.125,0.125 -4.25,0.25 -6.333,0.459c-2.5,0.25 -4.917,0.583 -7.375,0.875c-1.583,0.208 -3.167,0.375 -4.75,0.625c-2.625,0.375 -5.25,0.833 -7.917,1.333c-1.334,0.25 -2.708,0.458 -4.083,0.708c-2.667,0.542 -5.334,1.167 -7.959,1.75c-1.333,0.334 -2.666,0.584 -3.999,0.917c-2.584,0.666 -5.084,1.375 -7.626,2.083c-1.416,0.375 -2.875,0.792 -4.291,1.208c-2.334,0.709 -4.667,1.5 -7,2.251c-1.625,0.541 -3.209,1.083 -4.792,1.625c-2.083,0.749 -4.167,1.541 -6.25,2.333c-1.791,0.708 -3.625,1.417 -5.416,2.167c-1.792,0.75 -3.584,1.541 -5.376,2.333c-2,0.875 -3.999,1.791 -6,2.709c-1.541,0.749 -3.083,1.499 -4.583,2.249c-2.167,1.125 -4.375,2.209 -6.542,3.375c-1.291,0.708 -2.583,1.459 -3.916,2.167c-2.292,1.292 -4.542,2.583 -6.792,3.917c-1.208,0.708 -2.375,1.458 -3.542,2.208c-2.291,1.417 -4.541,2.875 -6.791,4.375c-1.209,0.792 -2.333,1.625 -3.5,2.417c-2.167,1.5 -4.334,3.041 -6.459,4.625c-1.333,0.958 -2.583,1.958 -3.875,2.958c-1.917,1.5 -3.875,2.959 -5.75,4.542c-1.666,1.375 -3.333,2.833 -4.958,4.249c-1.458,1.251 -2.917,2.459 -4.333,3.751c-3.083,2.791 -6.084,5.624 -9,8.583l-502,502c-98.042,98 -98.042,256.917 -0,354.958c49,49 113.25,73.5 177.5,73.5c64.208,0 128.458,-24.5 177.458,-73.5l73.542,-73.541l-0,2908.08c-0,138.625 112.375,251 251,251c138.625,-0 251,-112.375 251,-251l-0,-3514.04c-0,-4.125 -0.126,-8.291 -0.338,-12.416c-0.084,-1.958 -0.245,-3.917 -0.412,-5.875Z" style="fill-rule:nonzero;"/></g></svg>